<?xml version="1.0" encoding="UTF-8"?>
<svg version="1.1" viewBox="0 0 2048 445" width="2620" height="570" xmlns="http://www.w3.org/2000/svg">
<path transform="translate(829,2)" d="m0 0 3 4 6 17 5 12v3l17-6 20-8 11-4 2 1-7 7-7 8-9 9v1l38 4 3 2-21 5-18 5-12 3-9 21-5 13-10 24-12 29-13 32-1 5 15 15 6 2 9 12 7 11 3 5 4 10 2 4v5l-4-2-8-15-6-1v5l5-2 2 5 5 6 6 16 4 3-1-4-2-4 1-2 3 1 4 8 3 9v9h-3l-2-14-6-1 2 6h3l-1 8 2 3-1 22-2 13-3 10-7 14-7 7-2 1-2 7-12 7-10 3-1-2 2-3-13 6-11 3 1 39 13 8 26 15 8 5v1h-12l-17-2-25-2-17-2-3-1v-56l-29 2-3 2-4 1-22-4h-3l-1 2-19-5-14-5h-4l-14 32-4 8-4 10-9 20h-81l3-2 28-8 18-5 10-3h4l2-13 5-21 6-29 2-6-9-3-22-12-17-6-9-6-12-13-8-15-5-19v-14l4-18 4-9 7-14 6-9 12-17 9-13 1-3-3-7-14-31-8-16-4-9-11-5-17-6-9-4v-1h31l-8-34 4 2 16 16 8 7 3 1 2-5 9-13 7-10 4-4-3 10-16 40 1 5 11 18 8 13 11 17 7-6 8-6 4-6h2l-1 5-10 13-5 8 2 2 5-4 8-14 7-7 3-1-2 5 5-4 7-7h2l2-4 5-2 1-6 2 2 2 13 1 2 6-4 6-7 5-1v-2l-2-2 7-6 11-4h6l6 3 9-1 11 3 9 4 3 3-1 3h8l1 1 1 13 2 5 7 3-3-4 4-4 8-4 3-1 9 7 2-6 7-18 5-11 6-15 15-36 6-16-1-22zm-52 151-2 8v6l3 2h6v-4l-5-12zm-136 11m129 0m-131 1 1 3 1-3zm-1 3m-40 21 1 2zm231 20 2 4 2-2zm-98 159-7 1v1l12 1 2-3z" fill="#C51A1B"/>
<path transform="translate(465,166)" d="m0 0 18 2 10 2 15 5 4 4 8 4-2 7 1 11 1 2v44l2 40 2 16 1 5v10l3 35v20l-1 10-1 17-2 5-2 2 1 4-4 4-4 8-7 6h-2l-2 4-12 5-5 3-4 2-33 1-4 1-2-1-31-1-15-4-9-4-8-4-5-1v-2l-11-7 1-3h-3l-7-11-2-11 2-2v-6l3 1v3l4 4v3l4 1 1 3 10 8-7-9-1-3h2l3 4h2l-3-5h3l-2-4 1-7-2-1 1-10 2 4 3 7 5 13 7 9 8 6 12 5h15l14-3 10-6 6-8 6-13 2-9 1-11 1-35-9 3-11 2h-16l-14-5-20-6-5-3-11-7-4-5-4-2-2-3v-3h-2l-2-4-2-11-2-3-1-17 2-14 2-7h3l2-9 4-2 2 1 2-9 7-13 3-3 2-5 11-9 3-8 1-5 5-1 1-4 10-4 8-3h3l-1-3 13-4 10-2zm-42 14v3l2 1 4-4zm-3 2-9 6 3 2 5-1 2-4 2-1h-2zm-13 6m3 1m-1 1-1 5 4-1-2-4zm65 0-1 7v25h1l1-12v-20zm-5 1-2 5v49l2 28h1v-33l-1-22v-12l1-15zm-8 1-6 3-11 9-8 7-10 12-9 15-7 18-3 16 1 14 4 9 3 6 6 8 9 6h7l-2 1v2l6-1 14-8h3l-2 7 5-1 5-4-1-3-5 3v-3l6-1v-19l-1-10-1-73 1-5-1-8zm-55 5 1 3 1-3zm-1 3m-1 1m-5 5m5 0m-6 1-2 4h2l1-4zm-1 9m-6 1m5 0m-7 3v3zm-4 6m-1 3-1 4 2-1zm-18 26 1 4zm1 6v2h2v-2zm0 9m8 5m3 9v5l2 1-1-6zm92 6m-100 1m1 1 1 4 1-2zm9 0m90 0m-97 4m8 17m3 2 1 3 2-1z" fill="#2DAAE1"/>
<path transform="translate(1413,116)" d="m0 0h9l2 6 7-4h4v-2h2l1 4h3l5 8v106l2 29 1 45 1 2h2v9h-1l-1 7 2 1-1 1-1 24-1 9h2l-1-4 2-3v17l-2 9-3 3-7 3-3 3h-2v-2h-8l-1-1-4 4-2-4-1 2-4-2-2 4h-9v-4h-2v2h-4l-1 3h-2l-1-3v-20l-7 3-16 9-7 3-11 2-34 2-14-1-10-4-8-4-11-9-6-6v-2h2l-3-6v-6l2 1 4 11-1-4-2-7v-5l-2-2v-11l-1-3 3-8 1-11 3-1 2-9 5-12 7-14 4-10 6-8 6-12 7-8 1-4 5-6 10-10-1-2 15-8h2v-2l8-3-1-2 7-1h33l-1-23v-54l3-1 7-1v15l1-12 3-3h2l1 2zm-21 25m3 5v3l-1 9h3l1-11zm0 17m4 11v5h1v-5zm-20 41-10 8-8 6-10 9-8 10-9 13-8 14-4 10-6 13-1 11-2 5v20l2 4 1 6h2l2 8 10 9 6 3 8-1 11-7 10-9 8-8 3-5-1 6 5-1 3-7 1 1v5h2l-6 9 4-1 4-5 6-3 1-4v-23l-1-2 1-2v-22l-2-60-1-8-2-2zm-63 16m3 4m-1 1m-1 1m-1 1m-1 1m-1 1-5 7 1 2 4-4 1-5zm-6 9m-1 1m-1 1-2 2 1 3 2-5zm-3 5 1 2zm-1 2m-1 1m-1 1 1 2zm-1 2m3 0 1 2zm80 73m-1 1m8 8m3 1v3l2-3zm-119 3 1 2zm117 0m-116 3 1 2zm1 2 1 2zm1 2 1 3zm1 3 1 5 2 1-2-6zm3 6 2 4v-3zm169 0 1 2z" fill="#2DAAE1"/>
<path transform="translate(1194,168)" d="m0 0 7 1 3 4 2-4 14 2 5 5 1 7 2 41 3 23 2 1v4h-2v2l3 1-1 6h2v6 2l2 3v5 1l2 6v2l3 15v5l2 2 1 8 1 1v6l2 2 1 13 2 7v8l-3 1v4h-3l-2 7-4 1-3-3-4-1-1-1-2 5-3-1-1-2-8 4-3 2-5-1-2-3-4 2-2 4-4-1-4-5-3-10-4-21v-4l-14 10-3 3-15 7-3 1h-25l-17 3h-9l-6-2-9-2-3-5-8-7-2-4v-3l-3-6-2-10-2-5v-9h2l1 2-1-5-2-2v-7l1-4v-7l1-2v-7l3-18 6-17 2-6-1 1-2 5-3 2 1-6 8-15 3-5v-4l9-12 11-9 14-7 16-5 23-3 11-1h9l4 2 6-1zm-30 22-10 6-10 8-8 9-6 9-8 18-3 9-3 20v9l4 26 4 11 6 8 2 2 4-1 8-9 7-10 5-9 6-9 3-6v2l1 4 2-3-1 6-1 5-4 8v3l4-1 9-15-1 5 4-2-1-11-6-46-2-24v-10l-2-12zm-80 33m-1 1-1 5 2-3zm-2 5-5 12-4 12-1 14h-2v6l-1 3h2v17l2 13 2 1v-40l4-22 4-16zm152 33m-165 8m166 3 1 2zm-72 18 1 2 1-2zm11 4m2 1v2h2v-2zm-4 5m-10 5-2 4 3-1zm17 1 1 3 1-3z" fill="#2DAAE1"/>
<path transform="translate(921,173)" d="m0 0 6 1 1 12 2-6 5-3 7-1 1 2 5 1h11l16-1-5-1-15-1v-2l13-1 4 2 13 1 5 3 17 5 14 8 11 9 7 10 5 12 2 7v7l-1 1-1 13-3 9-1 9-4 1-4 9-8 10-6 4-5 4-24 11-7 2-25 5h-5l2 14 1 23 1-7h1l1 8v67l-3-1 3 4v6l-3 1v2h2v7l-6-1-9 6-6-2v-2l-3-1v-4h-2v2h-2v2l-3 1-1-2 1-2h-14l-4-2-1-5-6 2h-4l-1-5v-35l1-104 1-2 2 1 1 13v-43l1-8 2 1 1 7 2-3 2-19 1-6 1-25 1-4v-20zm39 25-9 4-1 12v16l-1 3 1 7v27 3h2v2h5l12-7 9-7 6-8 7-12 1-6h2l1-7 2 5 2-4 2 1 2-9v-9l-3-7-14-4zm66 1m11 14m-33 12m-5 3 1 2zm5 0 1 2zm-1 2 1 3zm-6 1-2 6 2-1v-3l2-1zm5 2 1 3zm-1 3 1 2z" fill="#2DAAE1"/>
<path transform="translate(247,130)" d="m0 0h6l2 1v4l3-2 11 1 10 5-3 9-4 8-1 5 3 2h7l10 4 10 8 8 4 10 11 8 13-1 4-7-9h-3v2l3-1 4 6 5 8 4 4-3-4v-3h2l7 13v5l-2-1 2 9 3 18 1 15-2 15-1 2-1 10-5 9-2 3-4 1-10 14-10 9-11 8-2 4-13 4v2l-3 1-19 1-21-2-7-2-16-1-8-7-7-8-5-10-4-15-1-9v-19l2-21 5-31 4-4 5-20 3-4v8l-3 14h2l1-6 3-19 2-6h2l4-14 2-11 2-6 3-7v-7l5-8 3-3 6-1 2-2zm18 47-2 4v3h-2l-2 16-3 12-4 34-1 16-1 3v39l2 11 3 7h4l9-6 9-10 4-5 1-3 3-3 3-6 1-5 3-8 3-17v-23l1 14v14l-4 17 1 4 3-9 3-13v-28l-5-17-4-11-3-8 2-1-3-2-1 5 3 10-4-10v-6l-2-2-2-6-5-6-4-3zm42 3 2 3v-3zm-25 6 2 4 2-1-2-3zm4 4 1 3v-3zm29 2m-27 1m-74 2m75 0m2 4m-78 1m44 2m-46 14m86 0 1 2zm29 0m5 3 2 4 2 1-1-5zm-33 1 1 4zm-100 8m101 0 2 9 1 17h1v-9h3v20l3 2v-20l-3-14-2 4-3-9zm-101 3m106 0m18 5 4 26-3 25-3 10 1 3 4-7v3l-2 7 5-4v-4l2-1 1-8 1-3-4 1 3-7 2-5-1-2-1-16-4-7-3-11zm-72 6m55 23 1 3zm11 2m-9 1-1 7 2-3zm-4 8-2 7-10 19-10 11-5 7 1 2 10-10 8-10 3-8 6-10 2-5v-3zm-12 9m-1 4m25 6-1 4 3-3zm-2 4 1 2zm19 0m-13 1-2 5 3-3zm-7 1m10 2m-1 2m-1 1-8 6 1 6 7-6 3-3-2-1zm-11 4m-1 1m-1 1m-57 1m1 4 1 7 1-4zm57 0m3 1v2l-4-1-2 5-6 4-6 6v2l4-2 2-2 4-2 6-5 4-7zm-26 4m18 1m-12 7-1 3h2l1-3z" fill="#2DAAE1"/>
<path transform="translate(1864,159)" d="m0 0h9l27 5 11 4 5 3 5 7 5 9 2 7 1 13v10l-1 11-5 16-12 26-4 10-11 14-5 9-5 5-1 4h-3v3h-2l-2 5-13 17-7 9-6 8-5 6 4 2 21 2 38 1 15 2 12 3 4 4-2 4-3 3-1 5-9 2h-9l-5 2-16 1-6 2h-43l-7-1-1 1h-14l-23-2-9-2-9-4-4-6-2-7 2-5 10-10h2l2-4 11-13 6-10 3-1 2-4 7-11 9-11 6-9 10-17 6-12 5-9 3-7 8-21 3-19-1-12-3-8-4-3-7 1-8 6-10 9-5 4-6 2h-16l-2-2-4 2-8 1-4 2-1-6h-5l1-3-7 7h-2v-6l-1-4 3-5 5-2 11-12 8-7 14-7 13-4 26-2zm-59 27m-10 1-7 7h3l6-7zm9 0m-1 1m-1 1m-1 1m-1 1-6 7 4-2 3-3zm-15 7v3z" fill="#2DAAE1"/>
<path transform="translate(1640,151)" d="m0 0h8l1 2-3 2 18 3 4 3v2l5 2 4 2 5 1 4 4 6 10 8 11 2 2 8 19 2-2 8 15v8l-2 3-2 7-12 6-21 4-22 3-26 2-26 3v13l3 24 2 13 1 2 1 9 1 11 3 2 3 7 10 10 10 3 11-1 13-4 11-7h3l1 3 6-3 5-1v3h6l2 2 7-3 3 1-3 4-3 1 4-1 4-2v5l-5 5h-2l-1 5-15 8-26 7-21 3h-35l-15-3-14-6-16-16-1-5 2-1-5-10-2-10 4 2 2 5h3l-1-8-2-11v-57h-5v-2l-14-2-7-3v-2l7 1h2l-5-3 2-3 3-1v-1h8l-1-5 1-1 12-2v-10l2-10 2 1 3-7 6 3-2 6v5l-2 2-1 6h2v5l1 1v-8l1-7 2-1 1-13 4-13 3-6-5 2 2-10 5-8 4-4-6 4 1-5 8-8 8-6 16-4zm-4 18-9 5-7 10-4 10-3 11-4 20-1 18h10l12-2 20-2 9-2 4-5-1-11-2-8h3l2 9h1l2-8 3 12h2v-4h2v4h2l-1-16-1-3h2l-1-7-4-3 1-5-5-7-1-2-1-4-2-4-4-1-7-4-2-1zm-42 2m4 6v3zm77 4m-2 1m3 0 2 6v2l2 1 2 5 2 1 5 14 3 5 4 9h2l-1-7-2-5h-2l1-4-9-17-7-9zm-6 2m-83 1 1 2zm84 0m-85 2m88 3m-87 13-3 5 2 1 2-6zm-5 14m84 5m-94 4 1 3v-3zm-1 4-1 5 2-1zm2 4 1 4zm2 30-1 3 2 2v-5zm-6 2-1 1v5l2 1v-7zm-5 75v2l2-1zm3 1m-1 4 2 3v-3zm59 3m-56 2m134 1m-138 1m1 1 1 2z" fill="#2DAAE1"/>
<path transform="translate(33,116)" d="m0 0h13l2 8 3 54 1 8 1 20 1 13 1 4 2 35v85l7 3 19-2 32-2h54l1 3 6 1 3 1-1 5-2 2-5 2-1 5-10 2-16 1-4 1-41 3-26 1-30 3h-11l-18-4-14-6v-42l2-8 2-40h1l1 8 1-12 3-3 1-33 1-2v-8l-3-18v-12l-2-11v-8l-2-6-1-14v-20l5-5h2l1-3 4-1 3-3 4 1 1-3zm-28 24 1 3zm1 8 1 3zm5 129 1 4zm0 16 1 2z" fill="#2DAAE1"/>
<path transform="translate(2038,156)" d="m0 0 1 2 4 1 2 65 1 6v22l-1 4 1 1v16l1 7-1 2 1 8 1 34v51l-1 12-3 4-2 5-4 4-5 2h-3l-2-3-3 3-1-3-1 2-6-1-1 3h-2v2h-11l-1-4h-2v5l-4-1-2 3-4-2-3-10 1-29v-171l-5 2-10-1-2-4-9-2-5-3-2-5 5-4h3l-1-3 3-7h4l2-2h6l2 1 13 1 1 1-1 11v24l2-1-2-3v-16l2-16 2-4h2v74 3l1 2 1-15-1-37v-17l1-9 6-4 3-4h9l4 5 3-5 2-1h10zm-46 66v22h1v-22zm0 38v21h1v-21zm52 6 1 2z" fill="#2DAAE1"/>
<path transform="translate(1517,173)" d="m0 0 8 2-1 45v14l1 3 2 16 1 21 2 17 1 3v13l2 1-1 2 1 9 1 8v37l-2 5-4 2-1 6-5 1-1 1h-7v-3l-4 2h-3-3l-1-1-3 3-11 1-2-1-1-3-2 3-5 1-4-2-1-3 1-11v-42l-1-21h2l1 3-1-20v-12h1l1-10 2 2v7h2l-2-13 1-7h1v-5l-2 2v-20h1v-6h-1v-35l1-2 5-3 4-4 9-2 3 1 3-3 11-1z" fill="#2DAAE1"/>
<path transform="translate(802,251)" d="m0 0v3l-10 14-10 13-11 13-9 10-13 13-15 11-12 6-11 3h-14l-13-4-14-9-12-11-11-12-15-20-14-21-4-7 4 2 18 13 21 12 21 9 13 4 10 2h26l15-4 17-7 16-10 13-10 13-12z" fill="#FEFFFF"/>
<path transform="translate(746,200)" d="m0 0 13 2 8 6 4 5 3 7 1 10-3 12-9 10-6 3-5 1h-8l-10-3-8-7-4-8-1-4v-12l4-10 6-7 9-4z" fill="#FEFFFF"/>
<path transform="translate(662,191)" d="m0 0h14l8 4 5 6 2 5v15l-4 8-6 5-8 3h-8l-8-3-5-4-5-10v-13l4-8 8-7z" fill="#FEFFFF"/>
<path transform="translate(1202,109)" d="m0 0 7 2v9l-4 10h3v7l-4 4h-9l2 6-12 2-12-13-1-3 2-5 7-7h5l-1-2 2-1-1-4 8-1 2-2h6zm-7 5v2l2-1z" fill="#2DAAE1"/>
<path transform="translate(1501,127)" d="m0 0 6 2h11l3 2-2 13-2 11-4 3h-12l-3-5-3 1-6-3-6-5 1-4 2-2h5v-2l-2-1 4-8 2 1v2h2l1-4z" fill="#2DAAE1"/>
<path transform="translate(1158,116)" d="m0 0 5 2 1 1-1 14-2 7-7 2-8-1-2-2v-3l-4 1-7-2-1 2h-5l-5-4-2-3 1-4 3-2h4l2-4 6-1 2 4h2l2-4z" fill="#2DAAE1"/>
<path transform="translate(745,220)" d="m0 0 7 1 5 5v8l-5 5-7 1-6-4-1-2v-8l4-5z" fill="#2DAAE1"/>
<path transform="translate(667,205)" d="m0 0h7l5 5v7l-4 4-7 1-5-4-1-2v-6z" fill="#2DAAE1"/>
<path transform="translate(1577,201)" d="m0 0 2 1-2 3 4-2-1 6-1 2h-2l-1-2-2 2-1-3z" fill="#2DAAE1"/>
<path transform="translate(1581,192)" d="m0 0 1 3h2l-1 5-2-1-1-1-1 2h-2l1-4z" fill="#2DAAE1"/>
<path transform="translate(401,194)" d="m0 0h2l-2 4-5 1 1-2h2v-2z" fill="#2DAAE1"/>
<path transform="translate(955,334)" d="m0 0 2 2v7h-2z" fill="#2DAAE1"/>
<path transform="translate(338,299)" d="m0 0 2 1-3 6-2 1 2-7z" fill="#2DAAE1"/>
<path transform="translate(369,241)" d="m0 0 1 4-2 5h-1l1-7z" fill="#2DAAE1"/>
<path transform="translate(357,382)" d="m0 0h2l1 7-3-3z" fill="#2DAAE1"/>
<path transform="translate(290,218)" d="m0 0 2 1 1 7-3-4z" fill="#2DAAE1"/>
<path transform="translate(954,319)" d="m0 0 2 2v5l-2-1z" fill="#2DAAE1"/>
<path transform="translate(387,210)" d="m0 0v3l-4 4 2-5z" fill="#2DAAE1"/>
<path transform="translate(1076,342)" d="m0 0 4 2 2 3-4-2z" fill="#2DAAE1"/>
<path transform="translate(1069,328)" d="m0 0 3 3-1 3-2-2z" fill="#2DAAE1"/>
<path transform="translate(210,191)" d="m0 0 1 3-1 5h-1v-7z" fill="#2DAAE1"/>
<path transform="translate(1659,207)" d="m0 0 3 1v3h-2z" fill="#2DAAE1"/>
<path transform="translate(326,313)" d="m0 0h2l-2 4-1-3z" fill="#2DAAE1"/>
<path transform="translate(376,226)" d="m0 0h2l-2 5-1-2z" fill="#2DAAE1"/>
<path transform="translate(1676,164)" d="m0 0 4 2-2 1-2-1z" fill="#2DAAE1"/>
<path transform="translate(322,320)" d="m0 0v3l-2 1z" fill="#2DAAE1"/>
<path transform="translate(1717,346)" d="m0 0 2 1-4 1z" fill="#2DAAE1"/>
<path transform="translate(1325,216)" d="m0 0v3l-2-1z" fill="#2DAAE1"/>
<path transform="translate(373,233)" d="m0 0" fill="#2DAAE1"/>
<path transform="translate(374,231)" d="m0 0" fill="#2DAAE1"/>
<path transform="translate(1268,348)" d="m0 0" fill="#2DAAE1"/>
<path transform="translate(1082,347)" d="m0 0" fill="#2DAAE1"/>
<path transform="translate(1719,345)" d="m0 0" fill="#2DAAE1"/>
<path transform="translate(388,209)" d="m0 0" fill="#2DAAE1"/>
<path transform="translate(389,208)" d="m0 0" fill="#2DAAE1"/>
<path transform="translate(1788,205)" d="m0 0" fill="#2DAAE1"/>
<path transform="translate(1667,186)" d="m0 0" fill="#2DAAE1"/>
<path transform="translate(1961,177)" d="m0 0" fill="#2DAAE1"/>
<path transform="translate(226,149)" d="m0 0" fill="#2DAAE1"/>
</svg>
