<?xml version="1.0" encoding="UTF-8"?>
<svg version="1.1" viewBox="0 0 1890 885" width="1890" height="885" xmlns="http://www.w3.org/2000/svg">
<path transform="translate(687)" d="m0 0 3 4 5 15 5 12 5 13v2l14-6 31-12 12-5h2l-1 4-12 12-7 8-6 7 1 1 45 5 3 2-17 5-15 3-29 8-2 1-14 35-4 9-6 15-9 21-2 7-4 8-12 30-9 21 20 20 5 2 8 9 2 5h2l12 21 2 7 4-3 1-3h2l-3 12 2 7-1 2-4-1 2 10 4 7h3l-2-5-3-1 2-5h2l7 12 4 12v8l-3 2-2-2-3-15-6-2 2 6 4 1v6l-1 5 2 2v16l-2 20-4 16-5 12-1 4 8 12 4 7 6 10 6 9 8-9 11-8 3-1 4-7 5-5h3l-3 9h-2l-1 4-10 13-4 6-6 8v6l10-8 4-7 5-8 4-7 7-8 6-4h4l-2 6h-2v3l15-16 3-3h6v-5l2-2 4-1 5-10h2l1 7 1 2v6l1 1 1 11 6-4 4-2 4-7 7-6h7l-1-4-4-1 2-4 3-3 14-7 7-3 14-1 5 4h22l15 4 7 3 6 2 3 3 2 1-1 8 11-1h3l1 17v12l7 2 6 4h2l-6-5 2-5 17-9 2-3 4 1 3 3 5 3 1 3h2v2h2l3-9 8-20 5-11 5-13 2-6h2l2-9 4-8 6-16 5-11 6-16 7-17 3-7 4-10 2-6v-27l-1-32v-29l2 1v3h2l4 13 4 9 3 8 7 18 2 6 8-2 8-3 12-5 12-4 6-3 16-6 13-5 3 1-3 5-14 14-7 8-9 9-3 4 3 1 23 2 1 1 35 3 4 1v2l-22 5-5 2-14 3-6 2-13 3-6 2-14 3-3 2-6 15-6 14-6 16-3 7h35l-1-7-7-29 1-4 8 8 8 7 12 12 4 3h3l16-24 10-14 2 1-16 40-4 11-4 10 1 4 8 14 11 17 11 18 6 8 5-6 11-7 6-8 3 1-3 6-12 16-4 6 1 3 6-5 7-11 6-9 7-5h2l-1 4-1 2 12-13h5l1-5 4-2 3-7h2l3 18 1 2 6-4 6-8 2-1h6l-1-3-3-1 2-4 12-7 12-3 5 1 2 2h16l15 5 10 5-2 6 12-1v12l1 9 8 4-2-4 5-4 9-5 1-2 4 1 8 7 7-14 10-25 3-7 5-12 14-35 3-7 7-17v-20l-1-24v-21l3 3 9 24 5 13 2 3 15-6 14-5 12-5 13-5 3 1-7 8-16 17-3 4 1 1 47 5v2l-60 15-6 12-11 27-4 10-5 12-13 32-15 36-6 16 19 19h3l-1-8-5-22 1-4 8 8 8 7 13 13 5 4 3-1 8-12h2v-3h2l2-5 11-16 4-4-3 9-8 21-6 16-8 20 1 5 11 17 12 20 12 19 2 5h2l2-4 5-5 9-6 5-8 5-1-3 7-10 14-7 10-1 5 8-6 10-17 6-7 5-3h3l-2 5-1 2 14-15h4l1-4 5-3 3-7h2l3 21 8-5 4-6 4-3h6l-1-3-3-1 2-4 9-6 10-4 10-1 4 3h18l20 7 2 1v2l4 2-2 5 12-1 1 23 6 2 5 3-1-1-4-3 2-4 14-8 1-2 4 1 8 7v2h2l1-6 32-76 3-9 14-34v-22l-1-25v-22l3 3 6 16 5 12 4 11 1 4 17-6 19-8 23-9 3 1-7 8-7 7-14 16 1 1 47 5 3 2-37 10-27 7h-2l-1 5-16 39-15 37-15 35-4 11-3 7-7 18 6 7 14 14 5 1 9 10 8 13 8 14 6 14 2 4v4l-5-1-6-10-5-9v-2h-2l-1 2-3-1 1 4 2-2h3l1 6 6 7 5 12 4 10 2 2h3l-3-5-2-1 2-6h2l8 16 3 9v9h-4l-2-5-2-11-6-2 3 5 3 2v6l-1 5 2 2v16l-2 22-4 15-7 16-6 8-8 7-1 7-10 7-15 7h-5l-1-2v-2l-20 8-6 1 1 49 28 16 8 5 11 6 14 9-2 1-92-9-1-1v-70l-6 1-27 1-6 1v3h-9l-26-5-2-1v2l2 1-11-1-23-6-14-5-8 16-12 27-2 6-11 24-7 16h-105v-2l44-13 17-4 21-6 5-21 1-8 1-5 11-49 1-2-5-1-12-5-17-10-14-5-12-5-10-6-8-7-29-3-29-2-29-3-1-1v-66l-6 1-32 1 1 3h-13l-15-3-10 1-21-6-16-5h-4l-4 8-5 13-6 13-4 10-6 12-9 21-3 6h-99l3-3 16-4 27-8 25-7 7-1 2-12 6-26 3-16 6-25-24-12-7-5-20-7-12-6-8-7-10-13-8-15-5-15-1-5v-22l3-14 5-13 8-17 21-31 13-18-1-6-6-12-11-24-13-28-2-6-7-2-9-4-13-5-17-7-2 7-5 12-4 10-3 7-3 8-5 12-4 9-6 16-4 9-6 15-5 12-1 3h-2l-1 6-3 7-2 7 20 20 5 4 1 2h5l7 7 2 1 4 7 4 5v3l3 1 3 6 9 15 8 18 3 8v5h-5l-6-9-5-10-5-7-7-1v5l7-3 2 4v3l6 7 6 11 3 12 5 9 2 2 4 1-4-8-3-1 2-6 3-1 6 10 5 12 3 9v12l-4 1-2-2-2-6-2-14-4-2-3 1 2 3v3l5 1v9l-2 5 3 3v21l-1 19-1 8-1 2-1 5-4 15-4 10-6 11-5 7-5 5-6 4-1 1-1 9-9 6-15 8-7 3h-6l-1-4 2-3-9 4-11 5-12 4h-3l1 63 6 3v2l5 1 6 4 11 6 13 8 9 5 14 8 10 6 3 2v2l-15-1-1-1-51-4-1-1-51-4-1-2-1-88h-7l-1 1-35 1-7 1v4h-10l-7-1-1-1-19-3h-6l-1 1-12-1-19-5-16-5-14-5-6 12-3 7-4 10-4 9-7 16-7 15-4 8-4 12-4 7-3 7-4 11h-134l1-3 16-4 9-3 13-4 13-3 9-3 11-3 6-2 12-3 9-3 5-1 2-6 1-5 4-21 2-6 3-16 2-7 3-16 2-6 4-22 1-2-21-9-18-11-7-3-16-6-10-4-7-3-6-4-8-6-3-3-3-5-8-9-2-3v-3l-3-1-8-17-4-10-2-10-2-6v-31l1-1v-7l2-6 3-11 6-14 9-19 8-11 1-3-12-2-39-3-1-1v-68l-7 1-26 1-6 1v3l-13-1-20-4v2l-10-1-17-5-12-3-7-3-8 16-14 32-5 10-5 13-7 15h-57l5 12 2 2h3l-3-5-2-1 2-6h2l8 16 3 9v9h-4l-2-5-2-11-6-2 3 5 3 2v6l-1 5 2 2v16l-2 22-4 16-7 15-6 8-8 7-1 7-10 7-15 7h-5l1-5-19 8-8 2v50l5 2 23 13 8 5 11 6 14 8-1 2-93-9-1-70-33 1-6 1v3h-8l-26-5v2l-11-1-17-4-12-4-10-4-1 6-17 38-11 24-2 6-7 16h-105v-2l44-13 17-4 20-6 8-34 11-49 1-2-5-1-12-5-17-10-24-9-9-5-9-8-8-10-10-17-5-14-2-9v-24l3-15 5-13 11-22 15-22 14-19 4-7-1-6-4-9-9-20-10-22-11-22v-2l-9-3-16-6-22-9v-2h39l-9-39 1-4 8 8 8 7 13 13 5 4 3-1 24-36h2l2-4 1 2-11 27-5 14-5 13-4 10 1 5 10 17v2h2l16 26 9 14v2h2l2-5 14-10 5-8 5-1-3 7-10 14-8 11 1 3 7-6 4-7h2l2-6 7-9 6-4h2l-2 5-1 2 14-15h5l1-5 5-3 2-6 3 1 2 17v3l5-3 4-4h2l2-4 3-3 7-2-4-2 2-4 10-7 8-3 11-1 4 3h17l21 7 5 5-2 5 12-1 1 13v10l6 2 4 2-3-3 2-4 13-7 1-3 4 1 9 8 5-10 10-26 10-23 10-25 3-17 5-15 8-17v-13l-1-25v-22l3 3 13 33 4-4 9-13 8-12-2-6-19-41-8-17-5-11v-2l-9-3-31-12-6-3v-2l37-1-2-10-6-26 1-4 8 8 8 7 12 12 5 4 3-1 7-11 15-22 4-5 2 1-10 24-6 17-9 22 2 5 24 38 9 15v2h2v3h2l2-4 5-5 9-6 4-7 5-1-3 7-15 20-2 5v2l8-6 9-16 6-7 4-2h3l-2 5h1l11-12 5-1 1-4 5-3 3-7h2l2 17 2 3 6-4 6-8 2-1h6l-1-3-3-1 2-4 9-6 9-3 10-1 4 3h17l12 3 9 4v2l4 2-2 5 12-1v22l6 2 5 3-4-4 2-4 13-7 1-2 4 1 8 7 7-14 3-9 12-28 11-27 4-10 7-17 6-15v-20l-1-24zm-62 185-3 15 5 2h6l1-4-2-1-5-12zm-164 13m-1 1-1 2h2zm-50 29m278 23 2 4v-3zm10 31v5l8-1-2-4-2 1zm8 4-2 3 6 8 2-2-5-9zm-332 96-10 24-5 13-12 29 6 7 15 15 5 1 8 9 13 21 8 17 8-1 21-6 5-2 3-8 2-12 13-57v-5l-20-9-15-9-18-6-10-5-9-8-6-8zm1016 14-1 1-2 13 5 3h6l1-4-4-4-4-9zm-1082 10-2 6-1 10 6 3h5l1-4-3-3-5-12zm921 2m-1 1 1 2zm-1 2m-1090 9 1 2 1-2zm-1 2 1 2zm856 3-2 2-3 18 7 4h7l2-5h-3l-3-9-4-10zm-317 13m-2 1m15 0-11 5-5 1 1-5-9 3-12 5-6 2v47l30 18 3-1 9-12 3-5 2-1 3-5 4-6 1-3 2-1 2-4-1-7-5-10-3-7-7-14zm-114 2-10 2v1l10 1 3-1v-2zm200 2m-1 1 1 2zm-1 2 1 2zm-687 5m453 4m913 0m-910 1m910 4 1 2zm1 2m-1080 13m1 1 1 3 2-1zm335 6m753 9 1 5 3-2v-2zm-1078 16v5h3l4-1 1 6 5 4-1-6-5-8-1 2zm690 6m1 1 2 4 2-1zm649 10-2 6-2 10 6 3h5l2-4-3-3-5-12zm-171 14m-1 1v3zm-63 6-1 4 2 2v25l4-4 5-8-3-9-5-10zm11 24m288 24m1 1 1 3 2-1zm-350 49-12 6-16 6v46l17 10 16 10 10 5 11 7 2-1-9-13-8-16-4-16v-24l3-16-13 3 1-3 4-3zm-98 3-10 2v1l10 1 3-1v-2zm-36 14m3 1m-948 8m-2 1m-102 2-11 2v1l11 1 3-1v-2zm-38 14v2h2v-2zm3 1v2l3-1zm1246 46m-410 27m-132 4-14 2 1 2 12 1 4-2v-2zm-48 18v2h2v-2zm4 1v2l3-1zm893 4m-1 1m-103 2-10 2v1l10 1 3-1-1-3zm-37 14 1 2z" fill="#C693C2"/>
<path transform="translate(1786,334)" d="m0 0 3 3 6 16 5 12 4 11 1 4 17-6 19-8 23-9 3 1-7 8-7 7-14 16 1 1 47 5 3 2-37 10-27 7h-2l-1 5-16 39-15 37-15 35-4 11-3 7-7 18 6 7 14 14 5 1 9 10 8 13 8 14 6 14 2 4v4l-5-1-6-10-5-9v-2h-2l-1 2-3-1 1 4 2-2h3l1 6 6 7 5 12 4 10 2 2h3l-3-5-2-1 2-6h2l8 16 3 9v9h-4l-2-5-2-11-6-2 3 5 3 2v6l-1 5 2 2v16l-2 22-4 15-7 16-6 8-8 7-1 7-10 7-15 7h-5l-1-2v-2l-20 8-6 1 1 49 28 16 8 5 11 6 14 9-2 1-92-9-1-1v-70l-6 1-27 1-6 1v3h-9l-26-5-2-1v2l2 1-11-1-23-6-14-5-8 16-12 27-2 6-11 24-7 16h-105v-2l44-13 17-4 21-6 5-21 1-8 1-5 11-49 1-2-5-1-12-5-17-10-14-5-12-5-10-6-11-12-9-14-7-14-4-16v-24l3-15 8-19 9-17 14-21 14-19 5-8-3-9-8-16-12-26-7-15v-4h-2l-3-10-9-3-15-6-17-6-7-3v-2h39l-9-39 1-4 8 8 8 7 13 13 5 4 3-1 8-12h2v-3h2l2-5 11-16 4-4-3 9-8 21-6 16-8 20 1 5 11 17 12 20 12 19 2 5h2l2-4 5-5 9-6 5-8 5-1-3 7-10 14-7 10-1 5 8-6 10-17 6-7 5-3h3l-2 5-1 2 14-15h4l1-4 5-3 3-7h2l3 21 8-5 4-6 4-3h6l-1-3-3-1 2-4 9-6 10-4 10-1 4 3h18l20 7 2 1v2l4 2-2 5 12-1 1 23 6 2 5 3-1-1-4-3 2-4 14-8 1-2 4 1 8 7v2h2l1-6 32-76 3-9 14-34v-22l-1-25zm-63 190-2 6-2 10 6 3h5l2-4-3-3-5-12zm-171 14m-1 1v3zm-52 30m288 24m1 1 1 3 2-1zm-15 193m-1 1m-103 2-10 2v1l10 1 3-1-1-3zm-37 14 1 2z" fill="#EB6508"/>
<path transform="translate(371,216)" d="m0 0 3 3 13 33 3 10 17-6 42-17 3 1-7 8-7 7-14 16 1 1 47 5 3 2-37 10-27 7-6 12-9 23-8 20-10 23-13 32-5 13-12 29 6 7 14 14 5 1 9 10 13 21 11 24v4l-5-1-6-11-5-8-6-1 1 4 5-2 2 7 6 8 8 20 2 2h3l-3-5-2-1 2-6h2l8 16 3 9v9h-4l-2-5-2-11-6-2 3 5 3 2v6l-1 5 2 2v16l-2 22-4 16-7 15-6 8-8 7-1 7-10 7-15 7h-5l1-5-19 8-8 2v50l5 2 23 13 8 5 11 6 14 8-1 2-93-9-1-70-33 1-6 1v3h-8l-26-5v2l-11-1-17-4-12-4-10-4-1 6-17 38-11 24-2 6-7 16h-105v-2l44-13 17-4 20-6 8-34 11-49 1-2-5-1-12-5-17-10-24-9-9-5-9-8-8-10-10-17-5-14-2-9v-24l3-15 5-13 11-22 15-22 14-19 4-7-1-6-4-9-9-20-10-22-11-22v-2l-9-3-16-6-22-9v-2h39l-9-39 1-4 8 8 8 7 13 13 5 4 3-1 24-36h2l2-4 1 2-11 27-5 14-5 13-4 10 1 5 10 17v2h2l16 26 9 14v2h2l2-5 14-10 5-8 5-1-3 7-10 14-8 11 1 3 7-6 4-7h2l2-6 7-9 6-4h2l-2 5-1 2 14-15h5l1-5 5-3 2-6 3 1 2 17v3l5-3 4-4h2l2-4 3-3 7-2-4-2 2-4 10-7 8-3 11-1 4 3h17l21 7 5 5-2 5 12-1 1 13v10l6 2 4 2-3-3 2-4 13-7 1-3 4 1 9 8 5-10 10-26 10-23 10-25 3-17 5-15 8-17v-13l-1-25zm-63 190-2 6-1 10 6 3h5l1-4-3-3-5-12zm-171 14 1 2 1-2zm-1 2 1 2zm-51 29m287 24m1 1 1 3 2-1zm-14 193m-2 1m-102 2-11 2v1l11 1 3-1v-2zm-38 14v2h2v-2zm3 1v2l3-1z" fill="#6FBC85"/>
<path transform="translate(1450,216)" d="m0 0 3 3 9 24 5 13 2 3 15-6 14-5 12-5 13-5 3 1-7 8-16 17-3 4 1 1 47 5v2l-60 15-6 12-11 27-4 10-5 12-13 32-15 36-6 16 19 19 5 1 1 8h-39v2l10 3 29 11 9 4 3 6v2h-3l1 3 4-1 4 10 15 32 3 9-1 4 2 2v16l-1 10-13 18-12 19-11 21-5 12-7 3h-6l1-4 1-1-21 9-5 2v45l21 12 11 7 10 5 11 7 5 3-2 1-29-3-29-2-29-3-1-1v-66l-6 1-32 1 1 3h-13l-15-3-10 1-21-6-16-5h-4l-4 8-5 13-6 13-4 10-6 12-9 21-3 6h-99l3-3 16-4 27-8 25-7 7-1 2-12 6-26 3-16 6-25-24-12-7-5-20-7-12-6-8-7-10-13-8-15-5-15-1-5v-22l3-14 5-13 8-17 21-31 13-18-1-6-6-12-11-24-13-28-2-6-7-2-9-4-13-5-15-6-1-2 36-1-1-7-7-29 1-4 8 8 8 7 12 12 4 3h3l16-24 10-14 2 1-16 40-4 11-4 10 1 4 8 14 11 17 11 18 6 8 5-6 11-7 6-8 3 1-3 6-12 16-4 6 1 3 6-5 7-11 6-9 7-5h2l-1 4-1 2 12-13h5l1-5 4-2 3-7h2l3 18 1 2 6-4 6-8 2-1h6l-1-3-3-1 2-4 12-7 12-3 5 1 2 2h16l15 5 10 5-2 6 12-1v12l1 9 8 4-2-4 5-4 9-5 1-2 4 1 8 7 7-14 10-25 3-7 5-12 14-35 3-7 7-17v-20l-1-24zm-60 180-1 1-2 13 5 3h6l1-4-4-4-4-9zm-161 12m-1 1 1 2zm-1 2m224 49 1 2zm-111 186-10 2v1l10 1 3-1v-2z" fill="#2DAADF"/>
<path transform="translate(687)" d="m0 0 3 4 5 15 5 12 5 13v2l14-6 31-12 12-5h2l-1 4-12 12-7 8-6 7 1 1 45 5 3 2-17 5-15 3-29 8-2 1-14 35-4 9-6 15-9 21-2 7-4 8-12 30-9 21 20 20 5 2 8 9 2 5h2l12 21 3 9-3 4h-2l-5-8v3l5 7-3 6-9 12-3 5-8 11-1 3-3 2-4-1-12-11-17-17-8-7-6-5 2 5 4 21 2 6 3 15v7h-31l3-5 13-16-4 2-9 6h-2v2l-16 8h-2l-1 2-16 6-11 3-3-1-1 2h-37l-5-1-21-6-9-3-5-2v-2l-6-1-15-8-7-3-2-2-11-7-4-2 7 11 3 4v2h2l14 19 13 15 9 9 14 10 4 2v2l6 2 11 3 9 1 12-2 9-3 12-6 15-11 4-2 2-4 17-17 8 1 9 4 25 10 9 4 6 12 3 8v3h2l5 12 7 14 3 8 3 7-12 6h-5l1-5-18 8-9 2 1 47 21 12 9 6-1 4-7 10-25-2-28-2-1-1v-68l-7 1-26 1-6 1v3l-13-1-20-4v2l-10-1-17-5-12-3-7-3-8 16-14 32-5 10-5 13-7 15h-57l-6-12h3l4 7 4 1-3-11 23-7 9-2 3-8 2-12 13-57 1-5-4-1-16-7-15-9-18-6-10-5-10-9-6-8 1-5 9-22 5-11 4-10 6-16 9-21 2-2 46-12 15-4v-1l-47-5-2-2 9-10 14-15 5-6-10 3-39 16-8 3h-4l-3-9 13-18 8-12-2-6-19-41-8-17-5-11v-2l-9-3-31-12-6-3v-2l37-1-2-10-6-26 1-4 8 8 8 7 12 12 5 4 3-1 7-11 15-22 4-5 2 1-10 24-6 17-9 22 2 5 24 38 9 15v2h2v3h2l2-4 5-5 9-6 4-7 5-1-3 7-15 20-2 5v2l8-6 9-16 6-7 4-2h3l-2 5h1l11-12 5-1 1-4 5-3 3-7h2l2 17 2 3 6-4 6-8 2-1h6l-1-3-3-1 2-4 9-6 9-3 10-1 4 3h17l12 3 9 4v2l4 2-2 5 12-1v22l6 2 5 3-4-4 2-4 13-7 1-2 4 1 8 7 7-14 3-9 12-28 11-27 4-10 7-17 6-15v-20l-1-24zm-62 185-3 15 5 2h6l1-4-2-1-5-12zm-164 13m-1 1-1 2h2zm-50 29m278 23 2 4v-3zm10 31v5l8-1-2-4-2 1zm-23 156m-2 1m-99 2-10 2v1l10 1 3-1v-2z" fill="#C51A1B"/>
<path transform="translate(747,597)" d="m0 0 4 2 27 18 24 12 9 5 7 3 20 7 17 5 22 4h28l26-5 13-5 7-3 9-4 13-7 14-9 14-10 8-7 1 3-11 13-8 11-13 15-9 10-7 8-13 13-10 8-13 10-13 8-12 6-14 4-14 1-14-2-13-5-11-6-19-14-7-8-15-15-8-10-11-14-10-14-11-16-7-11z" fill="#FEFEFE"/>
<path transform="translate(110,535)" d="m0 0 4 2 14 10 18 11 24 12 24 9 18 4 11 1h16l16-3 18-6 16-8 15-9 11-8 14-12 2-1-2 5-22 28-9 10-7 8-11 12-8 7-14 11-13 8-14 5-12 2-13-1-12-4-12-7-9-7-10-9-7-7-9-11-12-15-12-17-13-19z" fill="#FEFEFE"/>
<path transform="translate(445,319)" d="m0 0 11 7 5 3 2 1v2l7 2 15 8 8 3v2l7 1 21 7 9 1 2 1h36l5-1 16-5 11-5 16-8h2v-2l12-8h2l1-2v3l-13 16-4 4h-17v2l7 2 4 3-24 24-15 11-14 7-11 3-10 1-16-3-10-5v-2l-5-2-13-10-12-12-9-11-13-17v-2h-2l-10-15z" fill="#FCFAFB"/>
<path transform="translate(938,502)" d="m0 0h13l10 3 9 6 7 8 5 10 2 15-2 12-6 12-9 9-6 4-11 3h-12l-12-4-8-6-8-9-5-12v-19l4-10 6-10 7-6 10-5z" fill="#FEFEFE"/>
<path transform="translate(1215,529)" d="m0 0 5 2 13 8 10 6 24 11 25 7 12 2h23l20-4 16-6 22-12 9-7 2 1-11 14-12 14-18 18-13 10-13 8-14 5-12 2-14-3-16-8-14-11-11-11-9-11-14-19-10-14z" fill="#FEFEFE"/>
<path transform="translate(1540,669)" d="m0 0 5 2 14 8v2l6 2 21 10 24 8 13 3 9 1h24l17-3 18-6 12-6 18-11v3l-12 14-9 10-16 16-17 13-16 8-8 3-4 1h-15l-12-4-13-7-9-7-10-9-7-7-9-11-14-18-9-13z" fill="#FEFEFE"/>
<path transform="translate(817,486)" d="m0 0 12 1 12 6 6 7 4 8 1 4v16l-3 8-6 8-7 6-10 4h-11l-11-4-10-9-5-9-1-4v-15l2-7 7-11 9-6 5-2z" fill="#FEFEFE"/>
<path transform="translate(266,465)" d="m0 0h11l11 4 8 7 4 6 3 11v11l-4 12-9 10-10 5h-17l-10-4-6-5-6-10-2-6v-15l4-10 6-8 9-6z" fill="#FEFEFE"/>
<path transform="translate(586,243)" d="m0 0h8l11 4 7 6 5 9 2 6v12l-5 11-7 8-8 4-3 1h-12l-12-6-7-8-4-10v-12l4-10 2-4 7-6 8-4z" fill="#FBF9FB"/>
<path transform="translate(1683,586)" d="m0 0 10 1 10 5 6 7 4 8 1 4v11l-4 10-8 9-8 4-3 1h-10l-10-4-8-7-5-10-1-3v-11l4-10 1-2h2l2-4 4-4 8-4z" fill="#FEFEFE"/>
<path transform="translate(1352,453)" d="m0 0h7l11 4 8 8 4 8 1 4v12l-6 12-9 8-7 3h-11l-12-6-7-8-4-9v-12l3-7 6-9 11-7z" fill="#FEFEFE"/>
<path transform="translate(714,304)" d="m0 0 2 2 4 11 2 3h3l-2-5-3-1 2-5h2l7 12 4 12v8l-3 2-2-2-3-15-6-2 2 6 4 1v6l-1 5 2 2v16l-2 20-4 16-5 12-1 2h-2l-8-12-6-10-2-3v-3l-3-1-5-9-1-5 3-6 4-12 4-10 5-12 6-16z" fill="#C51B1C"/>
<path transform="translate(170,453)" d="m0 0h9l10 4 7 7 4 9v14l-4 9-6 7-10 5h-11l-9-3-8-7-4-8-1-3v-13l3-8 7-8 8-4z" fill="#FEFEFE"/>
<path transform="translate(494,231)" d="m0 0 10 2 9 6 1 3h2l4 10v9l-4 9-6 7-6 3-4 1h-8l-8-2v-2h-3l-7-10-2-5v-10l4-10 5-5h2v-2z" fill="#FCFAFB"/>
<path transform="translate(1583,575)" d="m0 0h12l9 6 6 10 1 3v9l-4 9-5 6-8 4-8 1-9-3-8-7-3-6-2-6 1-9 6-10 5-4z" fill="#FEFEFE"/>
<path transform="translate(1262,441)" d="m0 0 9 2 9 6 6 11v10l-4 9-5 6-8 4-8 1-9-3-7-6-4-8-1-3v-9l5-10 5-5 8-4z" fill="#FEFEFE"/>
<path transform="translate(941,530)" d="m0 0 9 1 7 6 2 5v7l-4 8-7 4h-8l-6-3-5-6-1-9 4-8 6-4z" fill="#2DAAE0"/>
<path transform="translate(820,506)" d="m0 0 8 1 6 5 2 9-3 7-5 4-2 1h-8l-7-5-2-4v-9l4-6z" fill="#2DAAE0"/>
<path transform="translate(1682,606)" d="m0 0 9 1 5 4 2 5-1 8-4 5-4 2h-8l-6-4-2-3v-10l4-6z" fill="#2DAAE0"/>
<path transform="translate(266,489)" d="m0 0h9l6 5 2 5-1 7-4 5-5 2-8-1-5-5-1-2v-9l5-6z" fill="#2DAAE0"/>
<path transform="translate(1351,473)" d="m0 0h8l6 5 2 5-2 9-5 4h-10l-6-5-1-2v-8l4-6z" fill="#2DAAE0"/>
<path transform="translate(586,264)" d="m0 0 9 1 5 5 1 2v8l-5 6-2 1h-9l-6-5-1-2v-8l4-6z" fill="#2DAAE0"/>
<path transform="translate(1587,587)" d="m0 0 8 1 5 5 1 8-3 5-4 3h-8l-5-3-2-4v-8l5-6z" fill="#2DAAE0"/>
<path transform="translate(171,470)" d="m0 0h8l4 2 3 6-1 7-5 5-7 1-5-3-3-4v-8l4-5z" fill="#2DAAE0"/>
<path transform="translate(1261,455)" d="m0 0h8l5 4 1 3v8l-5 5-8 1-6-4-2-4 1-8z" fill="#2DAAE0"/>
<path transform="translate(494,246)" d="m0 0h7l5 4 2 7-2 5-5 4h-7l-5-3-2-5 1-7z" fill="#2DAAE0"/>
<path transform="translate(632,326)" d="m0 0 2 2-10 12-6 8-2 1h-16v-3l16-8h2v-2l12-8h2z" fill="#F3E9F2"/>
<path transform="translate(372,276)" d="m0 0h1v9l-6 16-8 20-2 2 1-11 5-16 4-10z" fill="#C51E1E"/>
<path transform="translate(717,296)" d="m0 0 3 1 1 6-4 1-2-3z" fill="#C83B3D"/>
</svg>
